<?xml version="1.0" encoding="UTF-8"?>
<svg xmlns="http://www.w3.org/2000/svg" xmlns:xlink="http://www.w3.org/1999/xlink" width="150pt" height="150pt" viewBox="0 0 150 150" version="1.1">
<g id="surface1">
<path style=" stroke:none;fill-rule:nonzero;fill:rgb(0%,0%,0%);fill-opacity:1;" d="M 108.644531 0 L 41.410156 0 C 18.574219 0 0 18.578125 0 41.410156 L 0 108.644531 C 0 131.480469 18.574219 150.054688 41.410156 150.054688 L 108.644531 150.054688 C 131.480469 150.054688 150.054688 131.476562 150.054688 108.644531 L 150.054688 41.410156 C 150.054688 18.578125 131.480469 0 108.644531 0 Z M 136.742188 108.644531 C 136.742188 124.136719 124.136719 136.742188 108.644531 136.742188 L 41.410156 136.742188 C 25.917969 136.742188 13.3125 124.136719 13.3125 108.644531 L 13.3125 41.410156 C 13.3125 25.917969 25.917969 13.3125 41.410156 13.3125 L 108.644531 13.3125 C 124.136719 13.3125 136.742188 25.917969 136.742188 41.410156 Z M 136.742188 108.644531 "/>
<path style=" stroke:none;fill-rule:nonzero;fill:rgb(0%,0%,0%);fill-opacity:1;" d="M 75.027344 36.363281 C 53.707031 36.363281 36.363281 53.707031 36.363281 75.027344 C 36.363281 96.347656 53.707031 113.691406 75.027344 113.691406 C 96.347656 113.691406 113.691406 96.347656 113.691406 75.027344 C 113.691406 53.707031 96.347656 36.363281 75.027344 36.363281 Z M 75.027344 100.378906 C 61.050781 100.378906 49.675781 89.007812 49.675781 75.027344 C 49.675781 61.050781 61.046875 49.675781 75.027344 49.675781 C 89.007812 49.675781 100.378906 61.050781 100.378906 75.027344 C 100.378906 89.007812 89.007812 100.378906 75.027344 100.378906 Z M 75.027344 100.378906 "/>
<path style=" stroke:none;fill-rule:nonzero;fill:rgb(0%,0%,0%);fill-opacity:1;" d="M 115.316406 25.074219 C 112.75 25.074219 110.230469 26.113281 108.417969 27.933594 C 106.597656 29.742188 105.550781 32.265625 105.550781 34.839844 C 105.550781 37.402344 106.597656 39.925781 108.417969 41.742188 C 110.230469 43.554688 112.75 44.601562 115.316406 44.601562 C 117.886719 44.601562 120.398438 43.554688 122.21875 41.742188 C 124.039062 39.925781 125.078125 37.402344 125.078125 34.839844 C 125.078125 32.265625 124.039062 29.742188 122.21875 27.933594 C 120.410156 26.113281 117.886719 25.074219 115.316406 25.074219 Z M 115.316406 25.074219 "/>
</g>
</svg>
