<svg xmlns="http://www.w3.org/2000/svg" width="942.365" height="941.033" viewBox="0 0 942.365 941.033">
  <defs>
    <style>
      .cls-1 {
        opacity: 0.15;
      }

      .cls-2 {
        fill: #fff;
      }
    </style>
  </defs>
  <g id="logo_graphism" data-name="logo graphism" class="cls-1">
    <g id="Group_2" data-name="Group 2" transform="translate(0 0)">
      <path id="Combined_Shape" data-name="Combined Shape" class="cls-2" d="M571.281,755.024l13.681-3.5,49.813,186.01-13.68,3.5Zm76.468-28.763,12.235-6.933,116.82,197-12.234,6.933ZM544.36,759.983l13.945-2.289L582.29,897.351l-13.945,2.288Zm-27.315,2.676,14.1-1.056,9.009,114.978-14.1,1.056ZM288.04,866.829l70.416-138.24,12.659,6.162L300.7,872.991Zm163.1.421,11.3-106.516,14.065,1.425-11.3,106.516Zm-36.355-7.728,20.647-103.35,13.878,2.649-20.646,103.35Zm-74.262-12.658,42.7-106.884,13.172,5.028L353.7,851.891Zm282.6-108.693,12.821-5.831,50.076,105.213L673.2,843.383ZM488.661,836.023l1.007-73.249,14.14.186-1.007,73.25Zm108.88-88.24,13.3-4.685,29.662,80.492-13.3,4.685ZM388.259,820.5l21-70.376,13.576,3.87-21,70.377ZM671.138,712.414l11.55-7.976,75.46,104.412-11.55,7.976Zm-429.7,80.08,71.124-93.039,11.328,8.275-71.124,93.039ZM204.55,777,291.8,681.982l10.523,9.233-87.248,95.021Zm98.673-11.839,31.6-50.188,12.043,7.245-31.6,50.188Zm410.4-86.535,9.907-9.865,88.6,85.018-9.906,9.864Zm-533.53,68.406L272.742,662.7l9.637,10.117L189.732,757.15Zm-30.479-24.768,105.841-80.312,8.671,10.919L158.287,733.184ZM732.427,659.2l8.963-10.692,74.689,59.823-8.962,10.693ZM116.515,697.256l123.708-77.545,7.633,11.636L124.148,708.892Zm576.647-.777,10.774-8.955,7.425,8.626-10.774,8.955Zm56.2-58.277,7.946-11.435,96.6,64.148-7.946,11.434ZM116.833,652.393l110.208-56.177,6.538,12.257L123.371,664.65ZM777,591.976l5.729-12.638,150.525,65.2-5.729,12.638Zm-12.8,23.649,6.864-12.086,76.3,41.412L840.5,657.037Zm-647.556-3.883L216.1,571.691l5.387,12.781L122.03,624.523Zm670.908-44.453L792.1,554.2l36.849,12.227L824.4,579.517Zm8.282-25.586,3.349-13.356,143.183,33.9-3.331,13.443S799.927,542.777,795.834,541.7Zm-617.9,16.344L210.9,547.975l4.242,13.27-32.969,10.071ZM113.67,538.581,201.1,520.258l2.964,13.516L116.634,552.1ZM801.679,515.6l2.083-13.673,115.452,16.807-2.083,13.672ZM50.553,511.258l146.633-17.473,1.712,13.722L52.265,524.979Zm754.581-22.209.821-13.8,99.51,5.66-.822,13.8ZM79.638,471.1l115.521-3.388.424,13.823L80.062,484.92ZM805.73,448.523l74.088-2.288.447,13.817-74.088,2.288Zm-761.1-3.061.821-13.8,151.291,8.605-.822,13.8Zm758.425-23.631,63.835-7.607,1.711,13.722-63.835,7.606Zm-687.5-6.425,2.085-13.672,82.586,12.037-2.085,13.673ZM797.9,395.6l91.61-19.182,2.962,13.517-91.611,19.182ZM0,353.009l3.329-13.434L206.1,387.6l-3.33,13.435Zm790.365,16.8,42.308-12.842,4.194,13.2-42.308,12.843ZM32.357,316.224,36.9,303.135l177.44,58.913L209.8,375.137Zm748.146,28.6,59.1-23.79,5.384,12.782-59.1,23.79ZM150.717,320.3l5.729-12.638,68.465,29.658-5.729,12.638Zm617.662.531L897.3,255.141l6.536,12.258L774.915,333.086ZM45,224.881,51.865,212.8,237.7,313.7l-6.867,12.084Zm709.136,73.109,156.451-98.069,7.632,11.636-156.45,98.07ZM146.045,237.155l7.947-11.435,98.619,65.491-7.946,11.435ZM737.8,276.4l33.428-25.364,8.672,10.919-33.428,25.365ZM153.62,195.168l8.963-10.693L269.525,270.13l-8.962,10.692Zm566.1,61.183c2.251-2.027,23.515-21.41,23.515-21.41l9.64,10.116-23.622,21.5v.018ZM208.1,193.067,218,183.2l70.272,67.434-9.906,9.865Zm491.531,45.068L859.712,63.729l10.525,9.231L710.153,247.367ZM219.665,151.818l10.773-8.955,78.319,90.02-10.772,8.955Zm458.522,69.768c1.985-2.373,159.06-208.25,159.06-208.25l11.341,8.28-159.2,208.3ZM305.363,205.7l11.55-7.976L330.8,216.938l-11.55,7.976Zm349.66,1.4,48.906-77.648,12.041,7.248-48.906,77.648ZM302.638,143.671l12.236-6.93L354.2,203.093l-12.235,6.931ZM630.8,194.637,684.03,90.1l12.66,6.16L643.464,200.8ZM340.039,142.644l12.821-5.833,25.91,54.416-12.82,5.833Zm265.5,41.709L654.651,61.342l13.174,5.026L618.711,189.379Zm-256.79-112.8,13.3-4.685,42.3,114.782-13.3,4.685ZM579.442,176.335,631.816,0,645.4,3.855,593.022,180.19ZM393.811,91.163l13.68-3.5,23.193,86.6-13.68,3.5Zm158.84,79.46L577.608,45.7l13.879,2.649L566.53,173.272ZM428.866,69.936l14-2.351,17.566,100-14,2.35Zm96.649,97.351L537.833,51.175,551.9,52.6,539.582,168.714ZM460.543,37.376l14.1-1.056,10.22,130.42-14.1,1.055ZM496.232,165.86l.886-86.577,14.141.138L510.373,166Z"/>
      <path id="Combined_Shape-2" data-name="Combined Shape" class="cls-2" d="M181.886,368.449l.794-57.748,7.07.093-.794,57.747ZM195.2,322.755l7.05-.528,3.561,45.442-7.05.528Zm-30.133,44.406,5.073-47.9,7.033.712-5.073,47.9Zm44.074-37.952,6.973-1.143,6.4,37.294-6.973,1.143Zm-60.756,35.155,9.685-48.523,6.939,1.323-9.684,48.523Zm77.075-25.677,6.84-1.749,6.615,24.719-6.84,1.749ZM132.082,360.2l16.38-55.146,6.79,1.926-16.379,55.147Zm97.855-51.3,6.653-2.342L254.96,356.4l-6.653,2.343Zm-113.7,45.756,16.884-42.222,6.585,2.516L122.82,357.165ZM244.8,312.413l6.411-2.915,19.218,40.38-6.411,2.915ZM100.934,347.646,116.9,316.306l6.329,3.081-15.963,31.339ZM272.02,333.537l6.118-3.465,7.089,11.96L279.11,345.5Zm-185.679,5.82L118.626,288.1l6.022,3.623-32.285,51.26ZM269.1,303.075l5.776-3.987,24.39,33.761-5.775,3.987ZM72.564,329.8,100.2,293.607l5.666,4.134L78.23,333.931Zm185.172-59.507,5.386-4.478,49.285,56.649-5.386,4.478Zm-198,48.83,29.338-31.962,5.263,4.615L65,323.735Zm228.64-33.184L293.33,281l31.222,29.961L319.6,315.9ZM47.916,307.343l32.716-29.761,4.817,5.06L52.732,312.4Zm243.3-35.311,4.482-5.346,39.882,31.955-4.482,5.345Zm-254,22.572,33.587-25.476,4.334,5.461L41.557,300.065Zm266.666-28.675,3.973-5.717,37.569,24.948-3.973,5.718ZM27.779,280.877l32.277-20.24,3.818,5.818L31.6,286.695Zm275.277-29.669,3.433-6.042,47.5,25.789L350.553,277ZM19.6,266.491l39.807-20.275,3.267,6.13L22.868,272.621Zm307.773-17.582,2.865-6.319,30.976,13.419-2.864,6.319ZM12.753,251.444,58.4,233.068,61.1,239.46,15.445,257.834Zm287.141-25.849,2.275-6.545L367.1,240.62l-2.275,6.544ZM7.325,235.84,73.5,215.755l2.1,6.6L9.422,242.44Zm326.039-13.046,1.667-6.717,36.492,8.65-1.666,6.717ZM3.381,219.787l53-11.1,1.481,6.759-53,11.1ZM328.118,208.7l1.044-6.836,45.271,6.606-1.044,6.836ZM.924,203.453l38.329-4.567.855,6.86L1.779,210.313Zm324.632-7.433.411-6.9,49.817,2.833-.411,6.9ZM0,186.96l46.919-1.441.222,6.908L.222,193.868Zm317.527-9.6,58.219-1.769.219,6.908-58.22,1.768ZM.1,177.416l.411-6.9,37.38,2.126-.411,6.9ZM314.382,166.2l59.79-7.125.855,6.86-59.79,7.125ZM1.506,160.941,2.548,154.1l56.227,8.185-1.041,6.837Zm317.687-7.211,51.878-10.862,1.481,6.758-51.878,10.863ZM308.528,145.7l63.3-19.337L373.95,133l-63.3,19.337ZM4.473,144.748l1.648-6.721c2.233.554,20.644,4.884,20.644,4.884L25.1,149.633ZM304.378,134.11l56.109-22.573,2.691,6.391L307.069,140.5ZM8.827,128.765,11.1,122.22l26.06,8.647-2.273,6.545ZM14.7,113.339l2.865-6.319,54.079,23.426-2.864,6.319Zm303.852,1.009,34.466-17.479,1.7,2.98,1.613,3.066-34.484,17.565Zm-37.823-4.256L334.378,69.4l4.335,5.461-53.649,40.694Zm-8.437-6.814,50.9-46.335L328.012,62l-50.9,46.335ZM21.918,98.42l3.432-6.043,17.739,9.627-3.432,6.043ZM30.653,82.3l3.96-5.736,38.079,25.114-3.959,5.737ZM322.127,96.543l22.214-13.919,3.816,5.819-22.214,13.919ZM40.349,70.841l4.481-5.346L76.562,90.91l-4.481,5.346ZM76.662,36.6l5.775-3.988,42.065,58.2-5.774,3.988ZM51.387,58.38l4.954-4.931L93.1,88.73l-4.954,4.931ZM63.516,46.907,68.9,42.43l29.08,33.424L92.6,80.332ZM90.685,27.415,96.8,23.949,125.854,72.94l-6.118,3.466Zm14.837-7.946,6.41-2.916,26.015,54.636-6.41,2.916ZM256.536,69.452l27.082-43,6.021,3.623-27.082,43Zm-8.187-10.859,20.308-39.886,6.33,3.079L254.678,61.673Zm54.74-4.319,7.873-8.572,5.261,4.618-7.873,8.571ZM137.019,7.769l6.84-1.751,13.414,50.089-6.84,1.75Zm49.286,45.717L187.019.934l7.07.092-.713,52.552Zm51.515-2.891,15.288-38.312,6.587,2.512L244.408,53.106ZM120.992,12.982l6.653-2.342,14.581,39.57-6.652,2.342Zm32.449-8.949,6.973-1.143L168.582,50.5l-6.973,1.143Zm45.8,41.581,4.672-44.039,7.033.712-4.672,44.04ZM212.418,44.5l8.148-40.821L227.505,5,219.358,45.82ZM294.5,39.635l3.2-4.19,5.663,4.138-3.2,4.19ZM172.861.553,179.931,0l3.346,40.881-7.07.553Zm56.878,31.406,7.333-24.687,6.79,1.927L236.53,33.886Z" transform="translate(313.047 280.167)"/>
    </g>
  </g>
</svg>
