<svg width="481" height="481" viewBox="0 0 481 481" fill="none" xmlns="http://www.w3.org/2000/svg">
<g clip-path="url(#clip0_412_12021)">
<path d="M271.749 264.684C285.845 264.684 297.272 253.297 297.272 239.25C297.272 225.203 285.845 213.816 271.749 213.816C257.654 213.816 246.227 225.203 246.227 239.25C246.227 253.297 257.654 264.684 271.749 264.684Z" fill="white" stroke="black" stroke-width="2" stroke-miterlimit="10" stroke-linecap="round"/>
<path d="M233.592 143.717L196.656 180.523L233.592 217.33L270.528 180.523L233.592 143.717Z" fill="white" stroke="black" stroke-width="2" stroke-miterlimit="10" stroke-linecap="round"/>
<path d="M233.59 161.988L214.99 180.523L233.59 199.059L252.191 180.523L233.59 161.988Z" stroke="black" stroke-width="2" stroke-miterlimit="10" stroke-linecap="round"/>
<path d="M172.109 292.801L206.21 231.088L240.31 292.801H172.109Z" fill="white" stroke="black" stroke-width="2" stroke-miterlimit="10" stroke-linecap="round"/>
<path d="M191.119 280.796L206.209 253.492L221.3 280.796H191.119Z" stroke="black" stroke-width="2" stroke-miterlimit="10" stroke-linecap="round"/>
<path d="M271.751 252.006C278.82 252.006 284.551 246.296 284.551 239.251C284.551 232.207 278.82 226.496 271.751 226.496C264.682 226.496 258.951 232.207 258.951 239.251C258.951 246.296 264.682 252.006 271.751 252.006Z" stroke="black" stroke-width="2" stroke-miterlimit="10" stroke-linecap="round"/>
<path d="M186.208 192.473L204.153 186.379C206.408 185.613 208.13 184 209.104 182.012C210.072 180.02 210.289 177.658 209.517 175.384C207.974 170.841 203.073 168.399 198.567 169.929L140.825 189.538L145.317 164.953C146.105 160.657 143.373 156.484 139.134 155.509C137.635 155.161 136.123 155.26 134.747 155.727C132.668 156.433 130.907 157.976 129.965 160.109L109.061 208.133C105.19 215.471 104.228 224.352 107.118 232.864C112.719 249.358 130.627 258.163 146.96 252.357L185.507 239.179C189.315 237.885 191.344 233.726 190.04 229.886C188.736 226.046 184.594 223.983 180.785 225.276L187.404 223.045L190.29 219.341L190.622 213.962L187.359 210.71L182.728 208.823L188.244 207.055L192.22 204.334L193.09 198.408L190.359 194.611L186.206 192.468L186.208 192.473Z" fill="white"/>
<path d="M163.159 215.573L188.249 207.052C192.057 205.759 194.086 201.6 192.782 197.76C191.479 193.92 187.336 191.857 183.528 193.15L159.092 201.448" stroke="black" stroke-width="3" stroke-miterlimit="10"/>
<path d="M167.979 229.763L185.728 223.736C189.536 222.443 191.565 218.283 190.261 214.443C188.957 210.604 184.815 208.54 181.006 209.833L163.258 215.861" stroke="black" stroke-width="3" stroke-miterlimit="10"/>
<path d="M167.936 229.64L180.785 225.276C184.594 223.983 188.736 226.046 190.04 229.886C191.344 233.726 189.315 237.885 185.507 239.179L146.96 252.357C130.627 258.163 112.719 249.358 107.118 232.864C104.228 224.352 105.19 215.471 109.061 208.133L129.965 160.109C130.907 157.976 132.668 156.433 134.747 155.727C136.123 155.26 137.635 155.161 139.134 155.509C143.373 156.484 146.105 160.657 145.317 164.953L140.825 189.538L198.567 169.929C203.073 168.399 207.974 170.841 209.517 175.384C210.289 177.658 210.072 180.02 209.104 182.012C208.13 184 206.408 185.613 204.153 186.379L159.157 201.659" stroke="black" stroke-width="3" stroke-miterlimit="10"/>
<path d="M283.759 268.807L270.869 262.917C269.249 262.177 268.09 260.847 267.515 259.294C266.946 257.738 266.963 255.965 267.709 254.331C269.2 251.068 273.031 249.622 276.268 251.101L317.746 270.054L316.262 251.423C316 248.168 318.349 245.27 321.576 244.864C322.718 244.719 323.835 244.907 324.823 245.359C326.316 246.041 327.51 247.322 328.05 248.98L339.972 286.29C342.297 292.042 342.342 298.722 339.548 304.836C334.134 316.684 320.145 321.882 308.432 316.327L280.75 303.609C278.015 302.359 276.819 299.111 278.08 296.353C279.34 293.595 282.578 292.373 285.314 293.623L280.558 291.462L278.691 288.488L278.85 284.461L281.524 282.289L285.112 281.235L281.142 279.502L278.39 277.178L278.19 272.703L280.509 270.084L283.761 268.804L283.759 268.807Z" fill="white"/>
<path d="M299.161 287.737L281.139 279.501C278.403 278.251 277.208 275.003 278.468 272.245C279.729 269.487 282.967 268.265 285.702 269.515L303.255 277.536" stroke="black" stroke-width="3" stroke-miterlimit="10"/>
<path d="M294.503 297.929L281.754 292.103C279.018 290.853 277.823 287.605 279.084 284.847C280.344 282.089 283.582 280.866 286.317 282.116L299.067 287.942" stroke="black" stroke-width="3" stroke-miterlimit="10"/>
<path d="M294.544 297.84L285.314 293.623C282.578 292.373 279.34 293.595 278.08 296.353C276.819 299.111 278.015 302.359 280.75 303.609L308.432 316.327C320.145 321.882 334.134 316.684 339.548 304.836C342.342 298.722 342.297 292.042 339.972 286.29L328.05 248.98C327.51 247.322 326.316 246.041 324.823 245.359C323.835 244.907 322.718 244.719 321.576 244.864C318.349 245.27 316 248.168 316.262 251.423L317.746 270.054L276.268 251.101C273.031 249.622 269.2 251.068 267.709 254.331C266.963 255.965 266.946 257.738 267.515 259.294C268.09 260.847 269.249 262.177 270.869 262.917L303.19 277.686" stroke="black" stroke-width="3" stroke-miterlimit="10"/>
</g>
<defs>
<clipPath id="clip0_412_12021">
<rect width="308" height="207" fill="white" transform="translate(86.5 137)"/>
</clipPath>
</defs>
</svg>
