<svg xmlns="http://www.w3.org/2000/svg" xmlns:xlink="http://www.w3.org/1999/xlink" width="211.339" height="160.92" viewBox="0 0 211.339 160.92">
  <defs>
    <style>
      .cls-1 {
        fill: url(#linear-gradient);
      }

      .cls-2, .cls-3 {
        fill: none;
        stroke-linecap: round;
        stroke-linejoin: round;
        stroke-width: 4px;
      }

      .cls-2 {
        stroke: #000;
      }

      .cls-3 {
        stroke: #fff;
      }
    </style>
    <linearGradient id="linear-gradient" y1="0.5" x2="1" y2="0.5" gradientUnits="objectBoundingBox">
      <stop offset="0" stop-color="#00cb8d" stop-opacity="0.749"/>
      <stop offset="1" stop-color="#00cb8d" stop-opacity="0.149"/>
    </linearGradient>
  </defs>
  <g id="Icone_Responsabilidade_e_etica" transform="translate(-2929.138 -4116.393)">
    <g id="Grupo_732" data-name="Grupo 732" transform="translate(2929.138 4116.393)">
      <rect id="Ret창ngulo_678" data-name="Ret창ngulo 678" class="cls-1" width="108.501" height="65.504" transform="translate(0 21.685)"/>
      <rect id="Ret창ngulo_679" data-name="Ret창ngulo 679" class="cls-1" width="108.501" height="17.711"/>
      <g id="Grupo_731" data-name="Grupo 731" transform="translate(20.21 37.831)">
        <path id="Caminho_708" data-name="Caminho 708" class="cls-2" d="M3249.551,4175.537l14.334,14.335-13.563,13.563" transform="translate(-3195.803 -4175.537)"/>
        <path id="Caminho_709" data-name="Caminho 709" class="cls-2" d="M3179.857,4205.083l-14.334-14.334,13.562-13.563" transform="translate(-3165.523 -4176.131)"/>
      </g>
      <circle id="Elipse_208" data-name="Elipse 208" class="cls-2" cx="3.983" cy="3.983" r="3.983" transform="translate(7.723 4.873)"/>
      <circle id="Elipse_209" data-name="Elipse 209" class="cls-2" cx="3.983" cy="3.983" r="3.983" transform="translate(21.692 4.873)"/>
      <circle id="Elipse_210" data-name="Elipse 210" class="cls-2" cx="3.983" cy="3.983" r="3.983" transform="translate(35.662 4.873)"/>
    </g>
    <g id="Grupo_730" data-name="Grupo 730" transform="translate(2983.639 4169.293)">
      <line id="Linha_1106" data-name="Linha 1106" class="cls-3" y1="24.491" transform="translate(77.418 0)"/>
      <g id="Grupo_727" data-name="Grupo 727" transform="translate(0 24.51)">
        <g id="Grupo_726" data-name="Grupo 726" transform="translate(0 66.218)">
          <path id="Caminho_704" data-name="Caminho 704" class="cls-3" d="M3239.946,4295.019a42.97,42.97,0,0,0,65.739,0Z" transform="translate(-3239.946 -4295.019)"/>
        </g>
        <path id="Caminho_705" data-name="Caminho 705" class="cls-3" d="M3272.815,4209.019l32.87,66.218h-65.739Z" transform="translate(-3239.946 -4209.019)"/>
        <line id="Linha_1107" data-name="Linha 1107" class="cls-3" x2="51.952" transform="translate(32.87)"/>
      </g>
      <g id="Grupo_729" data-name="Grupo 729" transform="translate(77.418 24.51)">
        <g id="Grupo_728" data-name="Grupo 728" transform="translate(11.68 66.218)">
          <path id="Caminho_706" data-name="Caminho 706" class="cls-3" d="M3421.4,4295.019a42.97,42.97,0,0,1-65.739,0Z" transform="translate(-3355.662 -4295.019)"/>
        </g>
        <path id="Caminho_707" data-name="Caminho 707" class="cls-3" d="M3388.531,4209.019l-32.87,66.218H3421.4Z" transform="translate(-3343.982 -4209.019)"/>
        <line id="Linha_1108" data-name="Linha 1108" class="cls-3" x1="44.549"/>
      </g>
    </g>
  </g>
</svg>
