<svg xmlns="http://www.w3.org/2000/svg" xmlns:xlink="http://www.w3.org/1999/xlink" width="184.699" height="152.74" viewBox="0 0 184.699 152.74">
  <defs>
    <style>
      .cls-1, .cls-3 {
        fill: none;
        stroke-width: 4px;
      }

      .cls-1 {
        stroke: #fff;
        stroke-linecap: round;
        stroke-linejoin: round;
      }

      .cls-2 {
        fill: url(#linear-gradient);
      }

      .cls-3 {
        stroke: #000;
        stroke-miterlimit: 10;
      }
    </style>
    <linearGradient id="linear-gradient" y1="0.5" x2="1" y2="0.5" gradientUnits="objectBoundingBox">
      <stop offset="0" stop-color="#00cb8d" stop-opacity="0.749"/>
      <stop offset="1" stop-color="#00cb8d" stop-opacity="0.149"/>
    </linearGradient>
  </defs>
  <g id="Grupo_454" data-name="Grupo 454" transform="translate(2)">
    <g id="Grupo_450" data-name="Grupo 450" transform="translate(0 0)">
      <g id="layer-1" transform="translate(19.285)">
        <path id="Caminho_646" data-name="Caminho 646" class="cls-1" d="M-2220.234,2178.419" transform="translate(2247.833 -2062.752)"/>
        <path id="Caminho_647" data-name="Caminho 647" class="cls-1" d="M-2175.4,2178.419" transform="translate(2225.658 -2062.752)"/>
        <path id="União_1" data-name="União 1" class="cls-2" d="M27.958,57.551a28.781,28.781,0,1,1,19.785-7.117h.088L27.958,70.308Z" transform="translate(0 19)"/>
        <path id="União_2" data-name="União 2" class="cls-2" d="M9.731,50.434H9.82A28.782,28.782,0,1,1,29.6,57.552V70.308Z" transform="translate(90.762)"/>
        <ellipse id="Elipse_123" data-name="Elipse 123" class="cls-3" cx="13.478" cy="13.478" rx="13.478" ry="13.478" transform="translate(106.066 15.389)"/>
        <rect id="Retângulo_526" data-name="Retângulo 526" class="cls-3" width="21.851" height="21.851" transform="translate(28.781 32.417) rotate(45)"/>
      </g>
      <g id="layer-2" transform="translate(0 28.27)">
        <path id="União_3" data-name="União 3" class="cls-1" d="M31.569,103.715V93A57.4,57.4,0,0,1,8.25,97.912V69.094H0V40.751H.106Q0,39.334,0,37.89a37.89,37.89,0,1,1,75.779,0q0,1.444-.106,2.861h.106v62.964Z" transform="translate(104.92)"/>
        <path id="União_4" data-name="União 4" class="cls-1" d="M0,103.715V40.751H.107Q0,39.334,0,37.889a37.89,37.89,0,0,1,75.779,0q0,1.445-.107,2.862h.107V69.094h-8.25V97.912A57.4,57.4,0,0,1,44.21,93v10.719Z" transform="translate(0 18.755)"/>
      </g>
    </g>
  </g>
</svg>
