<svg xmlns="http://www.w3.org/2000/svg" xmlns:xlink="http://www.w3.org/1999/xlink" width="733.858" height="733.858" viewBox="0 0 733.858 733.858">
  <defs>
    <style>
      .cls-1 {
        fill: url(#linear-gradient);
      }

      .cls-2, .cls-3, .cls-4, .cls-5, .cls-6, .cls-7, .cls-8 {
        fill: none;
      }

      .cls-2 {
        stroke: #000;
      }

      .cls-2, .cls-4, .cls-5, .cls-6, .cls-7, .cls-8 {
        stroke-miterlimit: 10;
      }

      .cls-2, .cls-3 {
        stroke-width: 4px;
      }

      .cls-3, .cls-4, .cls-5, .cls-6, .cls-7, .cls-8 {
        stroke: #fff;
      }

      .cls-3 {
        stroke-linecap: round;
        stroke-linejoin: round;
      }

      .cls-4 {
        stroke-width: 2px;
        opacity: 0.3;
      }

      .cls-5 {
        stroke-width: 2.1px;
        opacity: 0.25;
      }

      .cls-6 {
        stroke-width: 2.2px;
        opacity: 0.2;
      }

      .cls-7 {
        stroke-width: 2.3px;
        opacity: 0.15;
      }

      .cls-8 {
        stroke-width: 2.4px;
        opacity: 0.1;
      }
    </style>
    <linearGradient id="linear-gradient" y1="0.5" x2="1" y2="0.5" gradientUnits="objectBoundingBox">
      <stop offset="0" stop-color="#00cb8d" stop-opacity="0.749"/>
      <stop offset="1" stop-color="#00cb8d" stop-opacity="0.149"/>
    </linearGradient>
  </defs>
  <g id="Grupo_613" data-name="Grupo 613" transform="translate(-707.133 -126.133)">
    <g id="Grupo_488" data-name="Grupo 488" transform="translate(-1532.988 -1576.694)">
      <g id="dark_bg" data-name="dark bg" transform="translate(2440.987 1950.486)">
        <rect id="Retângulo_552" data-name="Retângulo 552" class="cls-1" width="194.127" height="103.458" transform="translate(49.677 49.971)"/>
        <circle id="Elipse_132" data-name="Elipse 132" class="cls-2" cx="25.063" cy="25.063" r="25.063" transform="translate(140.316 76.637)"/>
        <line id="Linha_1074" data-name="Linha 1074" class="cls-2" x2="33.446" transform="translate(68.192 133.468)"/>
        <line id="Linha_1075" data-name="Linha 1075" class="cls-2" x2="26.273" transform="translate(195.759 65.876)"/>
        <g id="Grupo_486" data-name="Grupo 486">
          <g id="Grupo_484" data-name="Grupo 484">
            <circle id="Elipse_133" data-name="Elipse 133" class="cls-3" cx="49.971" cy="49.971" r="49.971"/>
          </g>
          <g id="Grupo_485" data-name="Grupo 485" transform="translate(36.593 14.111)">
            <path id="Caminho_656" data-name="Caminho 656" class="cls-3" d="M2500.066,2006.022a12.927,12.927,0,0,1,0-25.853H2513.9" transform="translate(-2487.14 -1970.745)"/>
            <path id="Caminho_657" data-name="Caminho 657" class="cls-3" d="M2500.066,2012.776a12.927,12.927,0,1,1,0,25.853H2487.14" transform="translate(-2487.14 -1977.499)"/>
            <line id="Linha_1076" data-name="Linha 1076" class="cls-3" y2="70.952" transform="translate(12.938)"/>
          </g>
        </g>
      </g>
      <g id="layer-1" transform="translate(2538.889 2126.005)">
        <g id="Grupo_487" data-name="Grupo 487" transform="translate(0 0)">
          <path id="União_7" data-name="União 7" class="cls-3" d="M30.591,62.689,2.012,18.928a12.237,12.237,0,0,1,20.2-13.811L40.971,31.344V27.463A23.527,23.527,0,0,1,64.5,3.936h65.173A20.363,20.363,0,0,1,150.035,24.3V37.94a24.749,24.749,0,0,1-24.749,24.749Z" transform="translate(0)"/>
          <line id="Linha_1077" data-name="Linha 1077" class="cls-3" x2="53.111" transform="translate(42.392 31.344)"/>
          <rect id="Retângulo_555" data-name="Retângulo 555" class="cls-3" width="31.086" height="58.753" transform="translate(181.12 62.688) rotate(180)"/>
        </g>
      </g>
    </g>
    <g id="Grupo_496" data-name="Grupo 496" transform="translate(-9.521 -3250.023)">
      <circle id="Elipse_114" data-name="Elipse 114" class="cls-4" cx="199.067" cy="199.067" r="199.067" transform="translate(884.516 3544.019)"/>
      <circle id="Elipse_115" data-name="Elipse 115" class="cls-5" cx="240.733" cy="240.733" r="240.733" transform="translate(842.851 3502.353)"/>
      <circle id="Elipse_116" data-name="Elipse 116" class="cls-6" cx="282.398" cy="282.398" r="282.398" transform="translate(801.185 3460.688)"/>
      <circle id="Elipse_117" data-name="Elipse 117" class="cls-7" cx="324.063" cy="324.063" r="324.063" transform="translate(759.52 3419.022)"/>
      <circle id="Elipse_118" data-name="Elipse 118" class="cls-8" cx="365.729" cy="365.729" r="365.729" transform="translate(717.855 3377.357)"/>
    </g>
  </g>
</svg>
