<svg width="247" height="212" viewBox="0 0 247 212" fill="none" xmlns="http://www.w3.org/2000/svg">
<path d="M211.167 46.6289H46.0752V135.342H211.167V46.6289Z" fill="white" stroke="black" stroke-width="2" stroke-miterlimit="10"/>
<path d="M146.072 114.654C158.796 114.654 169.11 104.34 169.11 91.6161C169.11 78.8926 158.796 68.5781 146.072 68.5781C133.349 68.5781 123.034 78.8926 123.034 91.6161C123.034 104.34 133.349 114.654 146.072 114.654Z" stroke="black" stroke-width="2" stroke-miterlimit="10"/>
<path d="M61.5889 118.236H91.0286" stroke="black" stroke-width="2" stroke-miterlimit="10"/>
<path d="M168.597 59.7578H198.036" stroke="black" stroke-width="2" stroke-miterlimit="10"/>
<path d="M203.033 209.124C210.823 209.124 217.135 202.806 217.135 195.023L217.128 195.03V171.784C217.128 163.995 210.809 157.683 203.026 157.683H154.444C140.162 157.683 128.588 168.988 128.588 183.269H124.81L102.988 161.446C97.9328 156.398 89.7494 156.398 84.7012 161.446C79.653 166.501 79.653 174.685 84.7012 179.733L114.099 209.124H203.033Z" fill="white" stroke="black" stroke-width="4" stroke-miterlimit="10"/>
<path d="M244.684 157.857H217.481V208.926H244.684V157.857Z" fill="white" stroke="black" stroke-width="4" stroke-miterlimit="10"/>
<path d="M46.073 90.3862C70.2386 90.3862 89.8286 70.7962 89.8286 46.6306C89.8286 22.465 70.2386 2.875 46.073 2.875C21.9074 2.875 2.31738 22.465 2.31738 46.6306C2.31738 70.7962 21.9074 90.3862 46.073 90.3862Z" fill="white" stroke="black" stroke-width="4" stroke-miterlimit="10"/>
<path d="M58.3657 22.6523H46.4324C39.8442 22.6523 34.499 27.9975 34.499 34.5857C34.499 41.1739 39.8442 46.519 46.4324 46.519" stroke="black" stroke-width="4" stroke-miterlimit="10"/>
<path d="M34.499 70.394H46.4324C53.0206 70.394 58.3657 65.0489 58.3657 58.4607C58.3657 51.8725 53.0206 46.5273 46.4324 46.5273" stroke="black" stroke-width="4" stroke-miterlimit="10"/>
<path d="M45.667 14.6348V77.3746" stroke="black" stroke-width="4" stroke-miterlimit="10"/>
</svg>
