<svg width="482" height="298" viewBox="0 0 482 298" fill="none" xmlns="http://www.w3.org/2000/svg">
<path d="M272.958 176.893L272.958 175.922L271.986 175.894C256.969 175.463 242.573 169.803 231.284 159.891C219.995 149.978 212.52 136.435 210.152 121.599C207.783 106.763 210.669 91.5663 218.31 78.6312C225.952 65.6961 237.869 55.8348 252.006 50.7498C266.143 45.6647 281.612 45.6749 295.742 50.7786C309.872 55.8824 321.776 65.7594 329.401 78.7046C337.025 91.6497 339.891 106.851 337.502 121.683C336.33 128.967 331.444 137.201 326.748 143.7C324.414 146.929 322.154 149.694 320.478 151.651C319.64 152.629 318.949 153.404 318.468 153.934C318.228 154.199 318.04 154.402 317.913 154.539C317.883 154.571 317.857 154.599 317.834 154.623C317.808 154.651 317.786 154.675 317.769 154.693L317.733 154.731L317.724 154.74L317.722 154.742L317.722 154.743L317.717 154.748L317.711 154.754L272.959 203.357L272.958 176.893Z" fill="white" stroke="black" stroke-width="2"/>
<path d="M142.997 252.055V168.347H143.136C143.044 167.091 142.997 165.823 142.997 164.543C142.997 151.183 148.305 138.37 157.752 128.923C167.199 119.475 180.012 114.168 193.373 114.168C206.733 114.168 219.546 119.475 228.993 128.923C238.44 138.37 243.748 151.183 243.748 164.543C243.748 165.823 243.701 167.091 243.609 168.347H243.748V206.03H232.778V244.346C222.1 244.36 211.538 242.132 201.775 237.807V252.055H142.997Z" fill="white" stroke="black" stroke-width="4" stroke-linecap="round" stroke-linejoin="round"/>
<path d="M253.652 93.4699C253.652 81.9611 263.204 72.6962 274.779 73.2289C285.114 73.7052 293.503 82.1304 293.981 92.5138C294.399 101.623 288.82 109.488 280.874 112.462C276.676 114.032 273.827 117.969 273.827 122.468V134.428" stroke="black" stroke-width="2" stroke-miterlimit="10"/>
<ellipse cx="274.175" cy="147.166" rx="6" ry="6" fill="black"/>
</svg>
