<?xml version="1.0" encoding="utf-8"?>
<!-- Generator: Adobe Illustrator 24.0.2, SVG Export Plug-In . SVG Version: 6.00 Build 0)  -->
<svg version="1.1" id="Camada_1" xmlns="http://www.w3.org/2000/svg" xmlns:xlink="http://www.w3.org/1999/xlink" x="0px" y="0px"
	 viewBox="0 0 291 291" style="enable-background:new 0 0 291 291;" xml:space="preserve">
<g>
	<g>
		<path d="M164.6,7.2v49.2c-7.6-2.3-15.7-2.3-23.2,0V7.2H164.6z M176.8,53.6l29.3-29.2l16.4,16.4L193.3,70l-5.6,5.6
			c-3.7-7-9.4-12.7-16.4-16.4L176.8,53.6z M153,61.8c15.7,0,29.2,11.4,31.6,26.9L198.3,75l34.4-34.3l-26.6-26.5l-34.4,34.3V0h-37.6
			v67.9C139.7,63.9,146.3,61.8,153,61.8"/>
		<path d="M206.1,163.2L176.9,134l-5.6-5.6c7-3.7,12.7-9.4,16.4-16.4l5.6,5.6l29.3,29.2L206.1,163.2z M164.6,139.1v41.4h-23.2v-49.2
			c7.6,2.3,15.7,2.3,23.2,0V139.1z M184.6,98.8c-2.8,17.4-19.2,29.3-36.7,26.6c-5-0.8-9.7-2.8-13.8-5.7v67.9h37.6v-48.5l34.4,34.3
			l26.6-26.5l-34.4-34.3L184.6,98.8z"/>
		<path d="M73.3,40.7l34.4,34.3H59v37.5h48.6l-34.4,34.3l26.6,26.5l27.2-27.2v-33.6c-8.2-11.2-8.2-26.4,0-37.6V41.4L99.8,14.2
			L73.3,40.7z"/>
	</g>
	<g>
		<path d="M0.3,229.9c0-8.5,5.3-14.2,13-14.2c7.8,0,13,5.7,13,14.2c0,8.5-5.3,14.1-13,14.1C5.6,244.1,0.3,238.4,0.3,229.9z
			 M21.4,229.9c0-5.9-3.2-9.5-8.1-9.5s-8.1,3.6-8.1,9.5c0,5.9,3.2,9.5,8.1,9.5S21.4,235.8,21.4,229.9z"/>
		<path d="M48.8,233.9c0,6.3-3.4,10-8.1,10c-2.2,0-4.3-0.9-5.5-2.3v9.9h-4.7v-27.2h4.7v1.9c1.3-1.6,3.5-2.3,5.5-2.3
			C46,223.9,48.8,228.1,48.8,233.9z M44.2,233.9c0-3.8-1.4-5.9-4.6-5.9c-3.4,0-4.8,2.5-4.8,5.9c0,3.4,1.4,5.9,4.8,5.9
			C42.7,239.8,44.2,237.6,44.2,233.9z"/>
		<path d="M69.1,235.4H55.9c0.2,2.5,1.8,4.2,4.8,4.2c1.7,0,3.3-0.5,4.6-2.1l3.2,2.8c-2.1,2.3-4.6,3.5-7.9,3.5
			c-6.6,0-9.4-4.8-9.4-9.9c0-5,2.7-10.1,9.1-10.1c6,0,8.8,4.4,8.8,9.7C69.2,234.2,69.1,234.8,69.1,235.4z M64.7,231.7
			c-0.1-2.5-1.9-3.9-4.4-3.9c-2.8,0-4.2,2-4.4,3.9H64.7z"/>
		<path d="M90.3,231.1v12.4h-4.7v-11.2c0-1.3,0-4.3-3.5-4.3c-4.4,0-4.4,4.4-4.4,7.8v7.7H73v-19.2h4.7v2.2c1.4-1.8,3.5-2.6,5.8-2.6
			C87.8,223.9,90.3,226.5,90.3,231.1z"/>
		<path d="M123.5,243.5l-8-13.5l-5.2,5.3v8.3h-4.9v-27.2h4.9v12.8l12.2-12.8h6.4l-10.1,10.3l10.4,16.9H123.5z"/>
		<path d="M149,231.1v12.4h-4.7v-11.2c0-1.3,0-4.3-3.5-4.3c-4.4,0-4.4,4.4-4.4,7.8v7.7h-4.7v-19.2h4.7v2.2c1.4-1.8,3.5-2.6,5.8-2.6
			C146.5,223.9,149,226.5,149,231.1z"/>
		<path d="M152.3,233.9c0-5.5,3.7-10,9.6-10c5.9,0,9.6,4.5,9.6,10c0,5.4-3.7,10-9.6,10C155.9,243.9,152.3,239.3,152.3,233.9z
			 M166.8,233.9c0-3.2-1.4-5.9-4.9-5.9c-3.5,0-4.9,2.7-4.9,5.9c0,3.1,1.4,5.9,4.9,5.9C165.4,239.8,166.8,237,166.8,233.9z"/>
		<path d="M172.2,224.3h5l3.3,12l3.6-12h4l3.6,12l3.3-12h5l-5.9,19.2h-4.2l-3.8-12.6l-3.8,12.6h-4.2L172.2,224.3z"/>
		<path d="M202.7,238.9v-22.6h4.7v22.3c0,0.9,0.5,1.2,1.4,1.2c0.4,0,0.9-0.1,1.5-0.2v3.7c-1.1,0.4-2.1,0.6-3,0.6
			C204.6,243.9,202.7,242.3,202.7,238.9z"/>
		<path d="M229.9,235.4h-13.2c0.2,2.5,1.8,4.2,4.8,4.2c1.7,0,3.3-0.5,4.6-2.1l3.2,2.8c-2.1,2.3-4.6,3.5-7.9,3.5
			c-6.6,0-9.4-4.8-9.4-9.9c0-5,2.7-10.1,9.1-10.1c6,0,8.8,4.4,8.8,9.7C230.1,234.2,230,234.8,229.9,235.4z M225.6,231.7
			c-0.1-2.5-1.9-3.9-4.4-3.9c-2.8,0-4.2,2-4.4,3.9H225.6z"/>
		<path d="M250.7,216.3v27.2h-4.7v-1.9c-1.3,1.6-3.5,2.3-5.5,2.3c-5.2,0-8.1-4.2-8.1-10c0-6.3,3.4-10,8.1-10c2.2,0,4.3,0.9,5.5,2.3
			v-9.9H250.7z M246.5,233.9c0-3.2-1.4-5.8-4.8-5.8c-3.1,0-4.6,2.2-4.6,5.8c0,3.5,1.4,5.7,4.6,5.7
			C245,239.6,246.5,237.1,246.5,233.9z"/>
		<path d="M272.5,246.1c0,4-3.7,5.7-8.8,5.7c-5.7,0-9-2.1-9-6.1c0-0.5,0-0.7,0.1-0.9l2.8-1.8c-1.4-0.7-2.3-1.9-2.3-3.9
			c0-1.7,0.7-2.9,1.8-3.9c-1-1.2-1.6-2.7-1.6-4.4c0-4.2,3.6-7.1,7.9-7.1c1.7,0,3.2,0.4,4.5,1.2l2.9-2.5l2.5,3l-2.8,2.3
			c0.5,1,0.8,2.1,0.8,3.4c0,4.3-3.6,7-7.8,7c-1.3,0-2.6-0.3-3.7-0.7c-0.4,0.2-0.5,0.5-0.5,1c0,1.4,2,1.8,4.4,2.1
			C267.5,241.1,272.5,241.5,272.5,246.1z M267.8,246.5c0-1.5-2.5-1.6-5.2-2l-1.6-0.2l-1.7,1.6c0,0.1,0,0.2,0,0.3
			c0,1.6,2.4,2.1,4.6,2.1C265.8,248.3,267.8,247.9,267.8,246.5z M260.1,231.1c0,1.8,1.1,3.3,3.3,3.3c2.1,0,3.2-1.4,3.2-3.3
			c0-2-1.2-3.3-3.2-3.3C261.4,227.8,260.1,229.1,260.1,231.1z"/>
		<path d="M291.3,235.4h-13.2c0.2,2.5,1.8,4.2,4.8,4.2c1.7,0,3.3-0.5,4.6-2.1l3.2,2.8c-2.1,2.3-4.6,3.5-7.9,3.5
			c-6.6,0-9.4-4.8-9.4-9.9c0-5,2.7-10.1,9.1-10.1c6,0,8.8,4.4,8.8,9.7C291.4,234.2,291.4,234.8,291.3,235.4z M286.9,231.7
			c-0.1-2.5-1.9-3.9-4.4-3.9c-2.8,0-4.2,2-4.4,3.9H286.9z"/>
		<path d="M99.4,263.1h9.5c5.4,0,8.6,2.6,8.6,6.9c0,2.5-1.1,4.6-3,5.7c2.9,1.1,4.4,3.3,4.4,6.7c0,5-3.3,7.9-8.8,7.9H99.4V263.1z
			 M108.9,273.9c2.5,0,3.7-1.1,3.7-3.1c0-2.1-1.4-3.2-3.7-3.2h-4.6v6.3H108.9z M109.7,285.7c2.7,0,4.4-1.5,4.4-3.9
			c0-2.3-1.5-3.5-4.4-3.5h-5.4v7.4H109.7z"/>
		<path d="M136.6,271.7l-2.3,4.1c-0.7-0.4-1.4-0.7-2.3-0.7c-2.8,0-4.2,1.8-4.2,5.4v9.7h-4.7V271h4.7v3.3c0.8-2.4,3-3.7,5.1-3.7
			C134.3,270.6,135.4,270.9,136.6,271.7z"/>
		<path d="M154.8,278.1v12.1h-4.3l-0.4-2.5c-1.1,1.8-3.3,2.9-5.8,2.9c-4.1,0-6.9-2.6-6.9-6.3c0-2.3,1-4,2.9-4.8
			c1.3-0.6,2.9-0.9,5.1-0.9h4.8v-0.5c0-2.1-1.4-3.4-3.6-3.4c-1.9,0-3.8,1-5.2,2.9l-3.4-2.8c2.3-2.8,5.1-4.1,8.7-4.1
			C151.6,270.6,154.8,273.5,154.8,278.1z M150.1,282.2h-4.2c-1.6,0-2.5,0.2-3.2,0.7c-0.5,0.4-0.8,0.9-0.8,1.6c0,1.4,1.1,2.2,3,2.2
			C147.8,286.6,150.1,284.6,150.1,282.2z"/>
		<path d="M157.7,285.2l3.7-1.7c0.5,1.4,1.5,3.2,4.1,3.2c2.2,0,3.1-1.2,3.1-2.3c0-3.2-9.9-1.1-9.9-8.2c0-3.7,3.4-5.6,7.1-5.6
			c3.3,0,5.8,1.6,7.3,4.2l-3.6,2c-0.7-1.2-1.7-2.5-3.8-2.5c-1.5,0-2.5,0.7-2.5,1.6c0,2.9,10.1,1.2,10.1,8.2c0,4.5-3.9,6.4-7.5,6.4
			C161.7,290.6,158.6,288.2,157.7,285.2z"/>
		<path d="M177,263.1h4.9v4.3H177V263.1z M177.1,271h4.7v19.2h-4.7V271z"/>
		<path d="M187.1,285.6v-22.6h4.7v22.3c0,0.9,0.5,1.2,1.4,1.2c0.4,0,0.9-0.1,1.5-0.2v3.7c-1.1,0.4-2.1,0.6-3,0.6
			C189,290.6,187.1,289.1,187.1,285.6z"/>
	</g>
</g>
</svg>
