<svg width="278" height="79" viewBox="0 0 278 79" fill="none" xmlns="http://www.w3.org/2000/svg">
<g clip-path="url(#clip0_446_1187)">
<path d="M79.6777 25.1749C79.6777 19.4411 83.2604 15.6445 88.5112 15.6445C93.762 15.6445 97.3448 19.4411 97.3448 25.1749C97.3448 30.9087 93.762 34.6782 88.5112 34.6782C83.2604 34.6782 79.6777 30.8817 79.6777 25.1749ZM94.0299 25.1749C94.0299 21.2222 91.8809 18.7622 88.5112 18.7622C85.1416 18.7622 82.9926 21.1982 82.9926 25.1749C82.9926 29.1516 85.1416 31.5635 88.5112 31.5635C91.8809 31.5635 94.0299 29.1036 94.0299 25.1749Z" fill="black"/>
<path d="M112.735 27.8452C112.735 32.0592 110.427 34.5462 107.216 34.5462C105.731 34.5462 104.273 33.9455 103.448 32.9753V39.6253H100.264V21.3785H103.448V22.661C104.349 21.5617 105.81 21.1172 107.216 21.1172C110.771 21.1172 112.735 23.9706 112.735 27.8452ZM109.551 27.8182C109.551 25.2802 108.571 23.8655 106.446 23.8655C104.139 23.8655 103.155 25.5144 103.155 27.8182C103.155 30.1219 104.136 31.7979 106.419 31.7979C108.54 31.7979 109.548 30.3322 109.548 27.8182H109.551Z" fill="black"/>
<path d="M126.505 28.8664H117.537C117.671 30.5695 118.731 31.6928 120.801 31.6928C121.966 31.6928 123.029 31.3264 123.933 30.3051L126.134 32.2154C124.7 33.7863 122.977 34.5462 120.773 34.5462C116.262 34.5462 114.354 31.3534 114.354 27.8963C114.354 24.4391 116.21 21.1172 120.563 21.1172C124.621 21.1172 126.584 24.0757 126.584 27.662C126.584 28.0555 126.557 28.4489 126.505 28.8664ZM123.534 26.3795C123.482 24.7305 122.207 23.7363 120.536 23.7363C118.6 23.7363 117.696 25.0969 117.51 26.3795H123.534Z" fill="black"/>
<path d="M140.964 25.959V34.2849H137.78V26.7459C137.78 25.8568 137.78 23.8655 135.366 23.8655C132.395 23.8655 132.395 26.824 132.395 29.1277V34.2849H129.211V21.3785H132.395V22.8713C133.323 21.6398 134.757 21.1172 136.349 21.1172C139.292 21.1172 140.967 22.8983 140.967 25.959H140.964Z" fill="black"/>
<path d="M163.622 34.2848L158.155 25.2019L154.627 28.7372V34.2878H151.312V16.041H154.627V24.6283L162.931 16.041H167.281L160.411 22.9523L167.467 34.2878H163.619L163.622 34.2848Z" fill="black"/>
<path d="M180.948 25.959V34.2849H177.764V26.7459C177.764 25.8568 177.764 23.8655 175.35 23.8655C172.379 23.8655 172.379 26.824 172.379 29.1277V34.2849H169.195V21.3785H172.379V22.8713C173.308 21.6398 174.741 21.1172 176.333 21.1172C179.277 21.1172 180.951 22.8983 180.951 25.959H180.948Z" fill="black"/>
<path d="M183.201 27.8182C183.201 24.1538 185.694 21.1172 189.755 21.1172C193.815 21.1172 196.308 24.1538 196.308 27.8182C196.308 31.4825 193.788 34.5462 189.755 34.5462C185.722 34.5462 183.201 31.4585 183.201 27.8182ZM193.124 27.8182C193.124 25.6976 192.169 23.8655 189.755 23.8655C187.341 23.8655 186.385 25.6976 186.385 27.8182C186.385 29.9387 187.341 31.7979 189.755 31.7979C192.169 31.7979 193.124 29.9117 193.124 27.8182Z" fill="black"/>
<path d="M196.76 21.3779H200.157L202.385 29.4666L204.854 21.3779H207.587L210.056 29.4395L212.311 21.3779H215.708L211.675 34.2843H208.811L206.236 25.8292L203.663 34.2843H200.799L196.766 21.3779H196.76Z" fill="black"/>
<path d="M217.535 31.1942V16.0381H220.719V30.9869C220.719 31.5636 221.063 31.7979 221.648 31.7979C221.94 31.7979 222.284 31.7468 222.655 31.6417V34.1557C221.94 34.417 221.221 34.5492 220.613 34.5492C218.835 34.5492 217.535 33.5009 217.535 31.1972V31.1942Z" fill="black"/>
<path d="M236.105 28.8664H227.137C227.271 30.5695 228.33 31.6928 230.4 31.6928C231.566 31.6928 232.628 31.3264 233.532 30.3051L235.733 32.2154C234.299 33.7863 232.577 34.5462 230.373 34.5462C225.862 34.5462 223.953 31.3534 223.953 27.8963C223.953 24.4391 225.81 21.1172 230.163 21.1172C234.22 21.1172 236.184 24.0757 236.184 27.662C236.184 28.0555 236.156 28.4489 236.105 28.8664ZM233.134 26.3795C233.082 24.7305 231.806 23.7363 230.135 23.7363C228.199 23.7363 227.295 25.0969 227.11 26.3795H233.134Z" fill="black"/>
<path d="M250.276 16.0381V34.2848H247.092V33.0023C246.191 34.1016 244.73 34.5462 243.323 34.5462C239.768 34.5462 237.805 31.6928 237.805 27.8181C237.805 23.6041 240.112 21.1171 243.323 21.1171C244.809 21.1171 246.267 21.7179 247.092 22.688V16.0381H250.276ZM247.384 27.8452C247.384 25.6976 246.404 23.9705 244.121 23.9705C241.999 23.9705 240.989 25.4363 240.989 27.8452C240.989 30.254 241.969 31.6417 244.093 31.6417C246.401 31.6417 247.384 29.9927 247.384 27.8452Z" fill="black"/>
<path d="M265.105 36.0388C265.105 38.7361 262.612 39.8864 259.081 39.8864C255.181 39.8864 252.953 38.4718 252.953 35.8016C252.953 35.4862 252.981 35.357 253.005 35.2249L254.889 34.0475C253.961 33.5489 253.324 32.7379 253.324 31.4043C253.324 30.278 253.775 29.467 254.545 28.8122C253.882 28.0013 253.483 26.9801 253.483 25.8537C253.483 23.0514 255.924 21.1141 258.843 21.1141C259.985 21.1141 261.044 21.4024 261.921 21.925L263.911 20.249L265.582 22.2374L263.698 23.7572C264.042 24.412 264.255 25.1719 264.255 26.0099C264.255 28.8903 261.814 30.7225 258.95 30.7225C258.049 30.7225 257.199 30.5393 256.429 30.2239C256.192 30.3801 256.058 30.5904 256.058 30.9057C256.058 31.8489 257.385 32.1102 259.029 32.3204C261.683 32.6598 265.105 32.9482 265.105 36.0388ZM261.921 36.3272C261.921 35.333 260.249 35.2279 258.365 34.9666L257.279 34.8104L256.137 35.8827C256.11 35.9608 256.11 36.0388 256.11 36.0929C256.11 37.1922 257.729 37.5316 259.215 37.5316C260.566 37.5316 261.921 37.2163 261.921 36.3272ZM256.667 25.9348C256.667 27.1663 257.409 28.1605 258.895 28.1605C260.38 28.1605 261.071 27.1933 261.071 25.9348C261.071 24.5982 260.249 23.7362 258.895 23.7362C257.54 23.7362 256.667 24.6252 256.667 25.9348Z" fill="black"/>
<path d="M277.92 28.8664H268.953C269.087 30.5695 270.146 31.6928 272.216 31.6928C273.382 31.6928 274.444 31.3264 275.345 30.3051L277.546 32.2154C276.112 33.7863 274.389 34.5462 272.185 34.5462C267.674 34.5462 265.766 31.3534 265.766 27.8963C265.766 24.4391 267.622 21.1172 271.975 21.1172C276.033 21.1172 277.999 24.0757 277.999 27.662C277.999 28.0555 277.972 28.4489 277.92 28.8664ZM274.949 26.3795C274.897 24.7305 273.622 23.7363 271.951 23.7363C270.015 23.7363 269.111 25.0969 268.925 26.3795H274.949Z" fill="black"/>
<path d="M80.9766 42.7695H87.4236C91.1129 42.7695 93.2863 44.4966 93.2863 47.377C93.2863 49.0801 92.5435 50.4407 91.2438 51.1736C93.2345 51.8794 94.2695 53.3992 94.2695 55.6759C94.2695 59.0279 92.0139 61.0163 88.2455 61.0163H80.9766V42.7695ZM87.4236 50.0202C89.0947 50.0202 89.9714 49.3143 89.9714 47.9507C89.9714 46.5871 89.043 45.7791 87.4236 45.7791H84.2914V50.0202H87.4236ZM87.9807 58.0037C89.8375 58.0037 90.9516 57.0095 90.9516 55.4116C90.9516 53.8137 89.9166 53.0298 87.9807 53.0298H84.2914V58.0037H87.9807Z" fill="black"/>
<path d="M106.342 48.5814L104.804 51.3567C104.354 51.0684 103.849 50.9122 103.212 50.9122C101.276 50.9122 100.321 52.0896 100.321 54.5255V61.0193H97.1367V48.1129H100.348V50.3115C100.905 48.7136 102.363 47.8516 103.849 47.8516C104.725 47.8516 105.492 48.0618 106.342 48.5844V48.5814Z" fill="black"/>
<path d="M118.704 52.8736V61.0163H115.785L115.52 59.3403C114.75 60.5448 113.264 61.2776 111.541 61.2776C108.784 61.2776 106.82 59.5236 106.82 57.0636C106.82 55.5438 107.511 54.3934 108.784 53.8167C109.66 53.4233 110.774 53.2401 112.26 53.2401H115.523V52.8736C115.523 51.4589 114.567 50.5969 113.054 50.5969C111.727 50.5969 110.482 51.2787 109.526 52.5342L107.219 50.6239C108.784 48.7647 110.72 47.8486 113.109 47.8486C116.558 47.8486 118.707 49.7589 118.707 52.8736H118.704ZM115.52 55.5949H112.68C111.593 55.5949 110.954 55.727 110.531 56.0394C110.187 56.2737 110.001 56.6401 110.001 57.1117C110.001 58.0278 110.771 58.6045 112.044 58.6045C113.955 58.6045 115.52 57.2709 115.52 55.5949Z" fill="black"/>
<path d="M120.672 57.6644L123.22 56.5381C123.564 57.4812 124.255 58.6586 126.005 58.6586C127.49 58.6586 128.126 57.8206 128.126 57.1388C128.126 54.9672 121.387 56.4059 121.387 51.6152C121.387 49.1282 123.67 47.8457 126.191 47.8457C128.446 47.8457 130.169 48.894 131.152 50.648L128.684 51.9816C128.233 51.1707 127.518 50.3327 126.084 50.3327C125.049 50.3327 124.413 50.8313 124.413 51.432C124.413 53.3963 131.259 52.2429 131.259 56.9556C131.259 59.9652 128.632 61.2747 126.166 61.2747C123.408 61.2747 121.311 59.6257 120.675 57.6614L120.672 57.6644Z" fill="black"/>
<path d="M133.854 42.7695H137.196V45.674H133.854V42.7695ZM133.933 48.1099H137.117V61.0163H133.933V48.1099Z" fill="black"/>
<path d="M140.699 57.9256V42.7695H143.883V57.7184C143.883 58.295 144.227 58.5293 144.812 58.5293C145.104 58.5293 145.448 58.4783 145.819 58.3731V60.8871C145.104 61.1484 144.385 61.2806 143.777 61.2806C141.999 61.2806 140.699 60.2324 140.699 57.9286V57.9256Z" fill="black"/>
<path d="M44.8698 3.48256V23.946C41.6645 22.9908 38.2157 22.9908 35.0104 23.976V3.48256H44.8698ZM50.0292 22.7806L62.482 10.6401L69.4709 17.4402L57.0486 29.5807L54.6682 31.8784C53.1127 28.9559 50.6685 26.5981 47.7098 25.0483L50.0292 22.7806ZM39.9264 26.1806C46.6109 26.1806 52.3183 30.9233 53.3258 37.396L59.155 31.6982L73.7446 17.4402L62.4516 6.40504L47.862 20.663V0.5H31.8965V28.7186C34.2464 27.0787 37.056 26.1836 39.9234 26.1836" fill="black"/>
<path d="M62.4817 68.3904L50.0594 56.2199L47.7095 53.9222C50.7017 52.4024 53.1125 50.0145 54.6984 47.092L57.0483 49.3898L69.4706 61.5302L62.4817 68.3904ZM44.8695 58.3074V75.5179H35.0102V55.0545C38.2154 56.0397 41.6642 56.0397 44.8695 55.0846V58.3074ZM53.356 41.6045C52.1962 48.8521 45.2074 53.805 37.7893 52.6396C35.6829 52.3123 33.6678 51.5073 31.9297 50.2818V78.5005H47.8952V58.3074L62.4848 72.5654L73.7778 61.5302L59.1882 47.2722L53.359 41.6045H53.356Z" fill="black"/>
<path d="M6.04527 17.4434L20.6349 31.7014H0V47.302H20.6349L6.04527 61.56L17.3383 72.5952L28.8779 61.3197V47.3291C25.3986 42.6765 25.3986 36.351 28.8779 31.6684V17.7077L17.3078 6.40527L6.04527 17.4434Z" fill="black"/>
</g>
<defs>
<clipPath id="clip0_446_1187">
<rect width="278" height="78" fill="white" transform="translate(0 0.5)"/>
</clipPath>
</defs>
</svg>
