<svg width="276" height="194" viewBox="0 0 276 194" fill="none" xmlns="http://www.w3.org/2000/svg">
<g clip-path="url(#clip0_455_3243)">
<path d="M185.261 129.689C199.357 129.689 210.784 118.302 210.784 104.256C210.784 90.2093 199.357 78.8223 185.261 78.8223C171.165 78.8223 159.738 90.2093 159.738 104.256C159.738 118.302 171.165 129.689 185.261 129.689Z" fill="white" stroke="black" stroke-width="2" stroke-miterlimit="10" stroke-linecap="round"/>
<path d="M147.104 8.7229L110.168 45.5293L147.104 82.3357L184.039 45.5293L147.104 8.7229Z" fill="white" stroke="black" stroke-width="2" stroke-miterlimit="10" stroke-linecap="round"/>
<path d="M147.102 26.9942L128.502 45.5293L147.102 64.0644L165.702 45.5293L147.102 26.9942Z" stroke="black" stroke-width="2" stroke-miterlimit="10" stroke-linecap="round"/>
<path d="M85.6211 157.807L119.721 96.0938L153.822 157.807H85.6211Z" fill="white" stroke="black" stroke-width="2" stroke-miterlimit="10" stroke-linecap="round"/>
<path d="M104.631 145.802L119.721 118.498L134.811 145.802H104.631Z" stroke="black" stroke-width="2" stroke-miterlimit="10" stroke-linecap="round"/>
<path d="M185.263 117.012C192.332 117.012 198.063 111.302 198.063 104.257C198.063 97.2126 192.332 91.502 185.263 91.502C178.194 91.502 172.463 97.2126 172.463 104.257C172.463 111.302 178.194 117.012 185.263 117.012Z" stroke="black" stroke-width="2" stroke-miterlimit="10" stroke-linecap="round"/>
<path d="M99.7194 57.4785L117.665 51.3846C119.92 50.6187 121.641 49.0063 122.616 47.0176C123.583 45.0257 123.801 42.6641 123.028 40.3899C121.486 35.8466 116.585 33.4051 112.079 34.9353L54.3366 54.5438L58.8285 29.9585C59.6166 25.6625 56.8843 21.4898 52.6455 20.5144C51.1464 20.167 49.6345 20.266 48.2587 20.7332C46.1801 21.439 44.4188 22.9821 43.4769 25.1145L22.573 73.1385C18.7021 80.4764 17.7392 89.3576 20.6298 97.8696C26.2309 114.363 44.139 123.169 60.472 117.363L99.0183 104.185C102.826 102.891 104.856 98.7319 103.552 94.8921C102.248 91.0522 98.1053 88.9887 94.2971 90.2819L100.916 88.0507L103.801 84.3466L104.134 78.9674L100.871 75.7157L96.24 73.8289L101.756 72.0608L105.731 69.3403L106.602 63.4138L103.871 59.6165L99.7177 57.4736L99.7194 57.4785Z" fill="white"/>
<path d="M76.6709 80.5784L101.761 72.0582C105.569 70.765 107.598 66.6056 106.294 62.7658C104.99 58.9259 100.848 56.8624 97.0395 58.1556L72.6033 66.4539" stroke="black" stroke-width="3" stroke-miterlimit="10"/>
<path d="M81.4906 94.769L99.2392 88.7418C103.047 87.4486 105.077 83.2892 103.773 79.4494C102.469 75.6095 98.3262 73.546 94.5181 74.8392L76.7695 80.8664" stroke="black" stroke-width="3" stroke-miterlimit="10"/>
<path d="M81.4476 94.6455L94.2971 90.2819C98.1053 88.9887 102.248 91.0522 103.552 94.8921C104.856 98.7319 102.826 102.891 99.0183 104.185L60.472 117.363C44.139 123.169 26.2309 114.363 20.6298 97.8696C17.7392 89.3576 18.7021 80.4764 22.573 73.1385L43.4769 25.1145C44.4188 22.9821 46.1801 21.439 48.2587 20.7332C49.6345 20.266 51.1464 20.167 52.6455 20.5144C56.8843 21.4898 59.6166 25.6625 58.8285 29.9585L54.3366 54.5438L112.079 34.9353C116.585 33.4051 121.486 35.8466 123.028 40.3899C123.801 42.6641 123.583 45.0257 122.616 47.0176C121.641 49.0063 119.92 50.6187 117.665 51.3846L72.669 66.6645" stroke="black" stroke-width="3" stroke-miterlimit="10"/>
<path d="M197.271 133.813L184.38 127.923C182.76 127.182 181.602 125.853 181.027 124.299C180.458 122.744 180.474 120.971 181.221 119.337C182.712 116.074 186.543 114.628 189.78 116.107L231.257 135.06L229.774 116.429C229.512 113.173 231.86 110.276 235.088 109.87C236.229 109.725 237.347 109.913 238.335 110.365C239.828 111.047 241.022 112.328 241.561 113.986L253.484 151.296C255.809 157.047 255.854 163.728 253.06 169.842C247.646 181.69 233.657 186.888 221.944 181.333L194.262 168.615C191.526 167.365 190.331 164.117 191.592 161.359C192.852 158.601 196.09 157.378 198.825 158.628L194.07 156.468L192.203 153.494L192.362 149.467L195.036 147.294L198.624 146.241L194.654 144.508L191.901 142.184L191.702 137.709L194.021 135.09L197.273 133.809L197.271 133.813Z" fill="white"/>
<path d="M212.673 152.743L194.65 144.507C191.915 143.257 190.72 140.009 191.98 137.251C193.24 134.493 196.478 133.271 199.214 134.521L216.767 142.542" stroke="black" stroke-width="3" stroke-miterlimit="10"/>
<path d="M208.015 162.935L195.266 157.109C192.53 155.859 191.335 152.611 192.595 149.853C193.856 147.094 197.094 145.872 199.829 147.122L212.578 152.948" stroke="black" stroke-width="3" stroke-miterlimit="10"/>
<path d="M208.056 162.846L198.825 158.628C196.09 157.378 192.852 158.601 191.592 161.359C190.331 164.117 191.526 167.365 194.262 168.615L221.944 181.333C233.657 186.888 247.646 181.69 253.06 169.842C255.854 163.728 255.809 157.047 253.484 151.296L241.561 113.986C241.022 112.328 239.828 111.047 238.335 110.365C237.347 109.913 236.229 109.725 235.088 109.87C231.86 110.276 229.512 113.173 229.774 116.429L231.257 135.06L189.78 116.107C186.543 114.628 182.712 116.074 181.221 119.337C180.474 120.971 180.458 122.744 181.027 124.299C181.602 125.853 182.76 127.182 184.38 127.923L216.702 142.692" stroke="black" stroke-width="3" stroke-miterlimit="10"/>
</g>
<defs>
<clipPath id="clip0_455_3243">
<rect width="275.806" height="193.432" fill="white"/>
</clipPath>
</defs>
</svg>
