<svg xmlns="http://www.w3.org/2000/svg" xmlns:xlink="http://www.w3.org/1999/xlink" width="733.857" height="733.858" viewBox="0 0 733.857 733.858">
  <defs>
    <style>
      .cls-1, .cls-2, .cls-3, .cls-4, .cls-5, .cls-8, .cls-9 {
        fill: none;
      }

      .cls-1, .cls-2, .cls-3, .cls-4, .cls-5, .cls-9 {
        stroke: #fff;
      }

      .cls-1, .cls-2, .cls-3, .cls-4, .cls-5, .cls-8 {
        stroke-miterlimit: 10;
      }

      .cls-1 {
        stroke-width: 2px;
        opacity: 0.3;
      }

      .cls-2 {
        stroke-width: 2.1px;
        opacity: 0.25;
      }

      .cls-3 {
        stroke-width: 2.2px;
        opacity: 0.2;
      }

      .cls-4 {
        stroke-width: 2.3px;
        opacity: 0.15;
      }

      .cls-5 {
        stroke-width: 2.4px;
        opacity: 0.1;
      }

      .cls-6 {
        fill: url(#linear-gradient);
      }

      .cls-7 {
        fill: url(#linear-gradient-2);
      }

      .cls-8 {
        stroke: #000;
      }

      .cls-8, .cls-9 {
        stroke-width: 4px;
      }

      .cls-9 {
        stroke-linecap: round;
        stroke-linejoin: round;
      }
    </style>
    <linearGradient id="linear-gradient" y1="0.5" x2="1" y2="0.5" gradientUnits="objectBoundingBox">
      <stop offset="0" stop-color="#00cb8d" stop-opacity="0.749"/>
      <stop offset="1" stop-color="#00cb8d" stop-opacity="0.149"/>
    </linearGradient>
    <linearGradient id="linear-gradient-2" x1="-0.207" y1="0.5" x2="1.207" y2="0.5" xlink:href="#linear-gradient"/>
  </defs>
  <g id="Grupo_601" data-name="Grupo 601" transform="translate(-707.133 -156.133)">
    <g id="Grupo_496" data-name="Grupo 496" transform="translate(-9.521 -3220.023)">
      <circle id="Elipse_114" data-name="Elipse 114" class="cls-1" cx="199.067" cy="199.067" r="199.067" transform="translate(884.516 3544.019)"/>
      <circle id="Elipse_115" data-name="Elipse 115" class="cls-2" cx="240.733" cy="240.733" r="240.733" transform="translate(842.851 3502.353)"/>
      <circle id="Elipse_116" data-name="Elipse 116" class="cls-3" cx="282.398" cy="282.398" r="282.398" transform="translate(801.185 3460.688)"/>
      <circle id="Elipse_117" data-name="Elipse 117" class="cls-4" cx="324.063" cy="324.063" r="324.063" transform="translate(759.52 3419.022)"/>
      <circle id="Elipse_118" data-name="Elipse 118" class="cls-5" cx="365.729" cy="365.729" r="365.729" transform="translate(717.855 3377.357)"/>
    </g>
    <g id="Grupo_550" data-name="Grupo 550" transform="translate(2635.246 -3126.125)">
      <circle id="Elipse_136" data-name="Elipse 136" class="cls-6" cx="42.468" cy="42.468" r="42.468" transform="translate(-1551.195 3619.31)"/>
      <rect id="Ret창ngulo_591" data-name="Ret창ngulo 591" class="cls-7" width="63.341" height="63.341" transform="translate(-1571.112 3609.703) rotate(-135)"/>
      <rect id="Ret창ngulo_592" data-name="Ret창ngulo 592" class="cls-8" width="34.878" height="34.878" transform="translate(-1571.112 3589.576) rotate(-135)"/>
      <path id="Caminho_669" data-name="Caminho 669" class="cls-6" d="M-1585.925,3713.111l-43.281,74.965h86.562Z" transform="translate(-18.647 -55.327)"/>
      <path id="Caminho_670" data-name="Caminho 670" class="cls-8" d="M-1575.726,3754.189l-17.905,31.013h35.811Z" transform="translate(-28.846 -67.105)"/>
      <circle id="Elipse_137" data-name="Elipse 137" class="cls-8" cx="19.024" cy="19.024" r="19.024" transform="translate(-1527.75 3642.754)"/>
      <g id="Grupo_548" data-name="Grupo 548" transform="translate(-1534.238 3657.319)">
        <path id="Caminho_671" data-name="Caminho 671" class="cls-9" d="M-1390.25,3760.63h-4.9v.4a10.62,10.62,0,0,0-10.62-10.62h-15.773v-30.188a7.759,7.759,0,0,0-7.759-7.758h0a7.758,7.758,0,0,0-7.758,7.758v72.775l-16.029-16.029a9.867,9.867,0,0,0-13.954,0h0a9.867,9.867,0,0,0,0,13.953l40.858,40.858v.623h26.942a19.609,19.609,0,0,0,19.608-19.608v-41.542A10.62,10.62,0,0,0-1390.25,3760.63Z" transform="translate(1469.928 -3712.46)"/>
      </g>
      <g id="Grupo_549" data-name="Grupo 549" transform="translate(-1694.246 3535.943)">
        <path id="Caminho_672" data-name="Caminho 672" class="cls-9" d="M-1580.108,3575.687h-73.916l16.281-16.281a10.021,10.021,0,0,0,0-14.171h0a10.02,10.02,0,0,0-14.172,0l-41.5,41.5h-.633v23.447a7.864,7.864,0,0,0-.2,1.742h0a7.873,7.873,0,0,0,.2,1.742v.432a19.915,19.915,0,0,0,19.915,19.916h42.192a10.786,10.786,0,0,0,10.786-10.786V3619.8h12.235a7.88,7.88,0,0,0,7.88-7.88h0a7.835,7.835,0,0,0-1.641-4.8h8.133a7.88,7.88,0,0,0,7.88-7.88,7.875,7.875,0,0,0-6.782-7.8h13.34a7.879,7.879,0,0,0,7.88-7.879h0A7.88,7.88,0,0,0-1580.108,3575.687Z" transform="translate(1694.246 -3542.3)"/>
      </g>
    </g>
  </g>
</svg>
