<svg width="184" height="162" viewBox="0 0 184 162" fill="none" xmlns="http://www.w3.org/2000/svg">
<path d="M182.639 1H55.8359V77.0833H182.639V1Z" fill="white" stroke="black" stroke-width="2" stroke-miterlimit="10"/>
<path d="M182.79 95.0186H126.664V143.285H182.79V95.0186Z" fill="white" stroke="black" stroke-width="2" stroke-miterlimit="10"/>
<path d="M79.3457 22.0293H160.071" stroke="black" stroke-width="2" stroke-miterlimit="10"/>
<path d="M79.3457 39.3496H160.071" stroke="black" stroke-width="2" stroke-miterlimit="10"/>
<path d="M139.658 111.099H171.511" stroke="black" stroke-width="2" stroke-miterlimit="10"/>
<path d="M139.658 128.418H171.511" stroke="black" stroke-width="2" stroke-miterlimit="10"/>
<path d="M111.962 95.0186H55.8359V161H111.962V95.0186Z" fill="white" stroke="black" stroke-width="2" stroke-miterlimit="10"/>
<path d="M68.3477 111.099H100.2" stroke="black" stroke-width="2" stroke-miterlimit="10"/>
<path d="M68.3477 128.418H100.2" stroke="black" stroke-width="2" stroke-miterlimit="10"/>
<path d="M41.7736 96.5473C63.74 96.5473 81.5473 78.74 81.5473 56.7736C81.5473 34.8073 63.74 17 41.7736 17C19.8073 17 2 34.8073 2 56.7736C2 78.74 19.8073 96.5473 41.7736 96.5473Z" fill="white" stroke="black" stroke-width="4" stroke-miterlimit="10"/>
<path d="M42.1392 81.6728C55.6326 81.6728 66.5713 70.7342 66.5713 57.2407C66.5713 43.7472 55.6326 32.8086 42.1392 32.8086C28.6457 32.8086 17.707 43.7472 17.707 57.2407C17.707 70.7342 28.6457 81.6728 42.1392 81.6728Z" fill="white" stroke="black" stroke-width="4" stroke-miterlimit="10"/>
<path d="M96.886 112.294L69.9746 85.3916" stroke="black" stroke-width="4" stroke-miterlimit="10"/>
<path d="M68.3477 145.474H87.6454" stroke="black" stroke-width="2" stroke-miterlimit="10"/>
<path d="M79.3457 56.0537H111.198" stroke="black" stroke-width="2" stroke-miterlimit="10"/>
<path d="M127.902 56.0537H159.755" stroke="black" stroke-width="2" stroke-miterlimit="10"/>
</svg>
